<svg width="43" height="40" viewBox="0 0 43 40" fill="none" xmlns="http://www.w3.org/2000/svg">
<path d="M22 11H28.95C28.7033 9.16667 27.94 7.61333 26.66 6.34C25.3867 5.06667 23.8333 4.30333 22 4.05M20 19.95V4.05C18 4.30333 16.3333 5.18333 15 6.69C13.6667 8.19667 13 9.96667 13 12C13 14.0333 13.6667 15.8033 15 17.31C16.3333 18.8233 18 19.7033 20 19.95ZM22 19.95C23.8333 19.7167 25.3933 18.96 26.68 17.68C27.96 16.3933 28.7167 14.8333 28.95 13H22M21 22C19.62 22 18.32 21.7367 17.1 21.21C15.8867 20.69 14.83 19.98 13.93 19.08C13.03 18.18 12.3167 17.12 11.79 15.9C11.2633 14.6867 11 13.3867 11 12C11 10.6133 11.2633 9.31333 11.79 8.1C12.3167 6.88667 13.03 5.83 13.93 4.93C14.83 4.03 15.8867 3.31667 17.1 2.79C18.32 2.26333 19.62 2 21 2C22.38 2 23.6767 2.26333 24.89 2.79C26.0967 3.31667 27.1533 4.03333 28.06 4.94C28.9733 5.84667 29.69 6.90333 30.21 8.11C30.7367 9.32333 31 10.62 31 12C31 13.3667 30.7367 14.66 30.21 15.88C29.69 17.0933 28.98 18.1533 28.08 19.06C27.18 19.9733 26.12 20.69 24.9 21.21C23.6867 21.7367 22.3867 22 21 22Z" fill="black"/>
<path d="M1.17995 37H0.256658L2.92711 29.7273H3.8362L6.50666 37H5.58336L3.41007 30.8778H3.35325L1.17995 37ZM1.52086 34.1591H5.24245V34.9403H1.52086V34.1591ZM8.3639 33.7188V37H7.52583V31.5455H8.33549V32.3977H8.40652C8.53436 32.1207 8.72849 31.8982 8.9889 31.7301C9.24932 31.5597 9.58549 31.4744 9.99743 31.4744C10.3667 31.4744 10.6899 31.5502 10.9669 31.7017C11.2439 31.8509 11.4593 32.0781 11.6132 32.3835C11.7671 32.6866 11.844 33.0701 11.844 33.5341V37H11.0059V33.5909C11.0059 33.1624 10.8947 32.8286 10.6721 32.5895C10.4496 32.348 10.1442 32.2273 9.75595 32.2273C9.48843 32.2273 9.24932 32.2853 9.03862 32.4013C8.83029 32.5173 8.66575 32.6866 8.54501 32.9091C8.42427 33.1316 8.3639 33.4015 8.3639 33.7188ZM14.9806 37.1278C14.6349 37.1278 14.3212 37.0627 14.0395 36.9325C13.7578 36.8 13.5341 36.6094 13.3683 36.3608C13.2026 36.1098 13.1198 35.8068 13.1198 35.4517C13.1198 35.1392 13.1813 34.8859 13.3044 34.6918C13.4275 34.4953 13.5921 34.3414 13.798 34.2301C14.004 34.1188 14.2313 34.036 14.4798 33.9815C14.7308 33.9247 14.9829 33.8797 15.2362 33.8466C15.5677 33.804 15.8364 33.772 16.0423 33.7507C16.2507 33.727 16.4022 33.688 16.4969 33.6335C16.594 33.5791 16.6425 33.4844 16.6425 33.3494V33.321C16.6425 32.9706 16.5466 32.6984 16.3548 32.5043C16.1655 32.3101 15.8778 32.2131 15.4919 32.2131C15.0918 32.2131 14.7781 32.3007 14.5509 32.4759C14.3236 32.651 14.1638 32.8381 14.0715 33.0369L13.276 32.7528C13.4181 32.4214 13.6075 32.1634 13.8442 31.9787C14.0833 31.7917 14.3437 31.6615 14.6254 31.5881C14.9095 31.5123 15.1889 31.4744 15.4635 31.4744C15.6387 31.4744 15.8399 31.4957 16.0672 31.5384C16.2968 31.5786 16.5182 31.6626 16.7313 31.7905C16.9467 31.9183 17.1254 32.1113 17.2675 32.3693C17.4095 32.6274 17.4806 32.973 17.4806 33.4062V37H16.6425V36.2614H16.5999C16.5431 36.3797 16.4484 36.5064 16.3158 36.6413C16.1832 36.7763 16.0068 36.8911 15.7867 36.9858C15.5665 37.0805 15.2978 37.1278 14.9806 37.1278ZM15.1084 36.375C15.4398 36.375 15.7192 36.3099 15.9465 36.1797C16.1761 36.0495 16.3489 35.8814 16.4649 35.6754C16.5833 35.4695 16.6425 35.2528 16.6425 35.0256V34.2585C16.607 34.3011 16.5289 34.3402 16.4081 34.3757C16.2897 34.4089 16.1524 34.4384 15.9962 34.4645C15.8423 34.4882 15.692 34.5095 15.5452 34.5284C15.4008 34.545 15.2836 34.5592 15.1936 34.571C14.9758 34.5994 14.7722 34.6456 14.5828 34.7095C14.3958 34.7711 14.2443 34.8646 14.1283 34.9901C14.0146 35.1132 13.9578 35.2812 13.9578 35.4943C13.9578 35.7855 14.0655 36.0057 14.281 36.1548C14.4988 36.3016 14.7746 36.375 15.1084 36.375ZM19.8483 29.7273V37H19.0102V29.7273H19.8483ZM21.923 39.0455C21.781 39.0455 21.6543 39.0336 21.5431 39.0099C21.4318 38.9886 21.3548 38.9673 21.3122 38.946L21.5253 38.2074C21.7289 38.2595 21.9088 38.2784 22.0651 38.2642C22.2213 38.25 22.3598 38.1802 22.4806 38.0547C22.6037 37.9316 22.7161 37.7315 22.8179 37.4545L22.9742 37.0284L20.9571 31.5455H21.8662L23.3719 35.892H23.4287L24.9344 31.5455H25.8435L23.5281 37.7955C23.424 38.0772 23.295 38.3104 23.1411 38.495C22.9872 38.6821 22.8084 38.8205 22.6048 38.9105C22.4036 39.0005 22.1763 39.0455 21.923 39.0455ZM29.3218 31.5455V32.2557H26.4951V31.5455H29.3218ZM27.319 30.2386H28.157V35.4375C28.157 35.6742 28.1914 35.8518 28.26 35.9702C28.3311 36.0862 28.421 36.1643 28.5299 36.2045C28.6412 36.2424 28.7584 36.2614 28.8815 36.2614C28.9738 36.2614 29.0496 36.2566 29.1088 36.2472C29.1679 36.2353 29.2153 36.2259 29.2508 36.2188L29.4213 36.9716C29.3644 36.9929 29.2851 37.0142 29.1833 37.0355C29.0815 37.0592 28.9525 37.071 28.7963 37.071C28.5595 37.071 28.3275 37.0201 28.1002 36.9183C27.8753 36.8165 27.6883 36.6615 27.5392 36.4531C27.3924 36.2448 27.319 35.982 27.319 35.6648V30.2386ZM30.5825 37V31.5455H31.4205V37H30.5825ZM31.0086 30.6364C30.8453 30.6364 30.7044 30.5807 30.586 30.4695C30.47 30.3582 30.412 30.2244 30.412 30.0682C30.412 29.9119 30.47 29.7782 30.586 29.6669C30.7044 29.5556 30.8453 29.5 31.0086 29.5C31.172 29.5 31.3116 29.5556 31.4276 29.6669C31.546 29.7782 31.6052 29.9119 31.6052 30.0682C31.6052 30.2244 31.546 30.3582 31.4276 30.4695C31.3116 30.5807 31.172 30.6364 31.0086 30.6364ZM35.1714 37.1136C34.6601 37.1136 34.2197 36.9929 33.8504 36.7514C33.4811 36.5099 33.197 36.1773 32.9981 35.7536C32.7993 35.3298 32.6998 34.8456 32.6998 34.3011C32.6998 33.7472 32.8016 33.2583 33.0052 32.8345C33.2112 32.4084 33.4977 32.0758 33.8646 31.8366C34.2339 31.5952 34.6648 31.4744 35.1572 31.4744C35.5407 31.4744 35.8864 31.5455 36.1942 31.6875C36.5019 31.8295 36.7541 32.0284 36.9506 32.2841C37.147 32.5398 37.269 32.8381 37.3163 33.179H36.4782C36.4143 32.9304 36.2723 32.7102 36.0521 32.5185C35.8343 32.3243 35.5407 32.2273 35.1714 32.2273C34.8447 32.2273 34.5583 32.3125 34.3121 32.483C34.0682 32.651 33.8776 32.889 33.7403 33.1967C33.6054 33.5021 33.5379 33.8608 33.5379 34.2727C33.5379 34.6941 33.6042 35.0611 33.7368 35.3736C33.8717 35.6861 34.0611 35.9287 34.305 36.1016C34.5512 36.2744 34.84 36.3608 35.1714 36.3608C35.3892 36.3608 35.5869 36.3229 35.7645 36.2472C35.942 36.1714 36.0924 36.0625 36.2155 35.9205C36.3386 35.7784 36.4262 35.608 36.4782 35.4091H37.3163C37.269 35.7311 37.1518 36.0211 36.9648 36.2791C36.7801 36.5348 36.5351 36.7384 36.2297 36.8899C35.9266 37.0391 35.5739 37.1136 35.1714 37.1136ZM42.4051 32.767L41.6523 32.9801C41.6049 32.8546 41.5351 32.7327 41.4427 32.6143C41.3528 32.4936 41.2297 32.3942 41.0734 32.3161C40.9172 32.2379 40.7171 32.1989 40.4733 32.1989C40.1395 32.1989 39.8613 32.2758 39.6388 32.4297C39.4186 32.5812 39.3085 32.7741 39.3085 33.0085C39.3085 33.2169 39.3843 33.3814 39.5358 33.5021C39.6873 33.6229 39.924 33.7235 40.246 33.804L41.0557 34.0028C41.5434 34.1212 41.9068 34.3023 42.1459 34.5462C42.385 34.7876 42.5045 35.099 42.5045 35.4801C42.5045 35.7926 42.4146 36.072 42.2346 36.3182C42.0571 36.5644 41.8085 36.7585 41.4889 36.9006C41.1693 37.0426 40.7976 37.1136 40.3738 37.1136C39.8175 37.1136 39.357 36.9929 38.9925 36.7514C38.6279 36.5099 38.397 36.1572 38.3 35.6932L39.0954 35.4943C39.1712 35.7879 39.3144 36.008 39.5251 36.1548C39.7382 36.3016 40.0164 36.375 40.3596 36.375C40.7503 36.375 41.0604 36.2921 41.29 36.1264C41.522 35.9583 41.6381 35.7571 41.6381 35.5227C41.6381 35.3333 41.5718 35.1747 41.4392 35.0469C41.3066 34.9167 41.103 34.8196 40.8284 34.7557L39.9193 34.5426C39.4198 34.4242 39.0528 34.2408 38.8184 33.9922C38.5864 33.7412 38.4704 33.4276 38.4704 33.0511C38.4704 32.7434 38.5568 32.4711 38.7297 32.2344C38.9049 31.9976 39.1428 31.8118 39.4434 31.6768C39.7465 31.5419 40.0898 31.4744 40.4733 31.4744C41.0131 31.4744 41.4368 31.5928 41.7446 31.8295C42.0547 32.0663 42.2749 32.3788 42.4051 32.767Z" fill="black"/>
</svg>
