<svg width="52" height="36" viewBox="0 0 52 36" fill="none" xmlns="http://www.w3.org/2000/svg">
<path d="M34 10.1C33.9 10.1 33.7 10.2 33.6 10.3L32.6 11.3L34.7 13.4L35.7 12.4C35.9 12.2 35.9 11.8 35.7 11.6L34.4 10.3C34.3 10.2 34.2 10.1 34 10.1ZM32.1 11.9L26 17.9V20H28.1L34.2 13.9L32.1 11.9ZM34 0H26V6H34V0ZM32 4H28V2H32V4ZM26 15.06V8H34V8.1C33.24 8.1 32.57 8.5 32.19 8.89L31.07 10H28V13.07L26 15.06ZM24 0H16V10H24V0ZM22 8H18V2H22V8ZM24 17.06V12H16V18H24V17.06ZM22 16H18V14H22V16Z" fill="black"/>
<path d="M3.3584 34H1.11408V26.7273H3.45783C4.16332 26.7273 4.76702 26.8729 5.26891 27.1641C5.7708 27.4529 6.15551 27.8684 6.42303 28.4105C6.69055 28.9503 6.82431 29.5966 6.82431 30.3494C6.82431 31.107 6.68936 31.7592 6.41948 32.3061C6.14959 32.8506 5.7566 33.2696 5.2405 33.5632C4.7244 33.8544 4.09703 34 3.3584 34ZM1.99476 33.2188H3.30158C3.90291 33.2188 4.40125 33.1027 4.79661 32.8707C5.19197 32.6387 5.48671 32.3085 5.68084 31.88C5.87497 31.4515 5.97203 30.9413 5.97203 30.3494C5.97203 29.7623 5.87615 29.2569 5.68439 28.8331C5.49263 28.407 5.20617 28.0803 4.82502 27.853C4.44386 27.6233 3.96919 27.5085 3.40101 27.5085H1.99476V33.2188ZM9.79306 34.1278C9.44741 34.1278 9.13373 34.0627 8.85201 33.9325C8.57028 33.8 8.34656 33.6094 8.18084 33.3608C8.01512 33.1098 7.93226 32.8068 7.93226 32.4517C7.93226 32.1392 7.99382 31.8859 8.11692 31.6918C8.24003 31.4953 8.40456 31.3414 8.61053 31.2301C8.8165 31.1188 9.04377 31.036 9.29235 30.9815C9.54329 30.9247 9.79542 30.8797 10.0487 30.8466C10.3802 30.804 10.6489 30.772 10.8548 30.7507C11.0632 30.727 11.2147 30.688 11.3094 30.6335C11.4065 30.5791 11.455 30.4844 11.455 30.3494V30.321C11.455 29.9706 11.3591 29.6984 11.1673 29.5043C10.978 29.3101 10.6903 29.2131 10.3044 29.2131C9.90433 29.2131 9.59064 29.3007 9.36337 29.4759C9.1361 29.651 8.9763 29.8381 8.88397 30.0369L8.08851 29.7528C8.23056 29.4214 8.41995 29.1634 8.65669 28.9787C8.8958 28.7917 9.15622 28.6615 9.43794 28.5881C9.72203 28.5123 10.0014 28.4744 10.276 28.4744C10.4512 28.4744 10.6524 28.4957 10.8797 28.5384C11.1093 28.5786 11.3307 28.6626 11.5438 28.7905C11.7592 28.9183 11.9379 29.1113 12.08 29.3693C12.222 29.6274 12.2931 29.973 12.2931 30.4062V34H11.455V33.2614H11.4124C11.3556 33.3797 11.2609 33.5064 11.1283 33.6413C10.9957 33.7763 10.8193 33.8911 10.5992 33.9858C10.379 34.0805 10.1103 34.1278 9.79306 34.1278ZM9.9209 33.375C10.2523 33.375 10.5317 33.3099 10.759 33.1797C10.9886 33.0495 11.1614 32.8814 11.2774 32.6754C11.3958 32.4695 11.455 32.2528 11.455 32.0256V31.2585C11.4195 31.3011 11.3414 31.3402 11.2206 31.3757C11.1022 31.4089 10.9649 31.4384 10.8087 31.4645C10.6548 31.4882 10.5045 31.5095 10.3577 31.5284C10.2133 31.545 10.0961 31.5592 10.0061 31.571C9.78832 31.5994 9.58472 31.6456 9.39533 31.7095C9.2083 31.7711 9.05679 31.8646 8.94078 31.9901C8.82715 32.1132 8.77033 32.2812 8.77033 32.4943C8.77033 32.7855 8.87805 33.0057 9.09348 33.1548C9.31129 33.3016 9.58709 33.375 9.9209 33.375ZM17.6863 29.767L16.9335 29.9801C16.8862 29.8546 16.8163 29.7327 16.724 29.6143C16.634 29.4936 16.5109 29.3942 16.3547 29.3161C16.1984 29.2379 15.9984 29.1989 15.7545 29.1989C15.4207 29.1989 15.1425 29.2758 14.92 29.4297C14.6998 29.5812 14.5898 29.7741 14.5898 30.0085C14.5898 30.2169 14.6655 30.3814 14.817 30.5021C14.9685 30.6229 15.2053 30.7235 15.5273 30.804L16.3369 31.0028C16.8246 31.1212 17.188 31.3023 17.4271 31.5462C17.6662 31.7876 17.7858 32.099 17.7858 32.4801C17.7858 32.7926 17.6958 33.072 17.5159 33.3182C17.3383 33.5644 17.0898 33.7585 16.7702 33.9006C16.4506 34.0426 16.0789 34.1136 15.6551 34.1136C15.0988 34.1136 14.6383 33.9929 14.2737 33.7514C13.9091 33.5099 13.6783 33.1572 13.5812 32.6932L14.3767 32.4943C14.4524 32.7879 14.5957 33.008 14.8064 33.1548C15.0194 33.3016 15.2976 33.375 15.6409 33.375C16.0315 33.375 16.3416 33.2921 16.5713 33.1264C16.8033 32.9583 16.9193 32.7571 16.9193 32.5227C16.9193 32.3333 16.853 32.1747 16.7204 32.0469C16.5879 31.9167 16.3843 31.8196 16.1096 31.7557L15.2006 31.5426C14.701 31.4242 14.3341 31.2408 14.0997 30.9922C13.8677 30.7412 13.7517 30.4276 13.7517 30.0511C13.7517 29.7434 13.8381 29.4711 14.0109 29.2344C14.1861 28.9976 14.424 28.8118 14.7247 28.6768C15.0277 28.5419 15.371 28.4744 15.7545 28.4744C16.2943 28.4744 16.7181 28.5928 17.0258 28.8295C17.336 29.0663 17.5561 29.3788 17.6863 29.767ZM19.8854 30.7188V34H19.0473V26.7273H19.8854V29.3977H19.9564C20.0843 29.116 20.276 28.8923 20.5317 28.7266C20.7897 28.5585 21.133 28.4744 21.5615 28.4744C21.9332 28.4744 22.2587 28.549 22.5381 28.6982C22.8174 28.8449 23.0341 29.071 23.1879 29.3764C23.3442 29.6795 23.4223 30.0653 23.4223 30.5341V34H22.5843V30.5909C22.5843 30.1577 22.4718 29.8227 22.2469 29.5859C22.0244 29.3468 21.7154 29.2273 21.32 29.2273C21.0454 29.2273 20.7992 29.2853 20.5814 29.4013C20.366 29.5173 20.1955 29.6866 20.07 29.9091C19.9469 30.1316 19.8854 30.4015 19.8854 30.7188ZM25.0692 34V26.7273H25.9072V29.4119H25.9782C26.0398 29.3172 26.125 29.1965 26.2339 29.0497C26.3452 28.9006 26.5038 28.768 26.7098 28.652C26.9181 28.5336 27.1998 28.4744 27.555 28.4744C28.0142 28.4744 28.4191 28.5893 28.7694 28.8189C29.1198 29.0485 29.3933 29.3741 29.5898 29.7955C29.7863 30.2169 29.8845 30.714 29.8845 31.2869C29.8845 31.8646 29.7863 32.3653 29.5898 32.7891C29.3933 33.2105 29.121 33.5372 28.773 33.7692C28.425 33.9988 28.0237 34.1136 27.5692 34.1136C27.2188 34.1136 26.9382 34.0556 26.7275 33.9396C26.5168 33.8213 26.3547 33.6875 26.241 33.5384C26.1274 33.3868 26.0398 33.2614 25.9782 33.1619H25.8788V34H25.0692ZM25.893 31.2727C25.893 31.6847 25.9534 32.0481 26.0741 32.3629C26.1949 32.6754 26.3712 32.9205 26.6032 33.098C26.8353 33.2732 27.1193 33.3608 27.4555 33.3608C27.8059 33.3608 28.0983 33.2685 28.3327 33.0838C28.5694 32.8968 28.747 32.6458 28.8653 32.331C28.9861 32.0137 29.0464 31.661 29.0464 31.2727C29.0464 30.8892 28.9872 30.5436 28.8689 30.2358C28.7529 29.9257 28.5765 29.6806 28.3398 29.5007C28.1054 29.3184 27.8106 29.2273 27.4555 29.2273C27.1146 29.2273 26.8282 29.3137 26.5961 29.4865C26.3641 29.657 26.189 29.8961 26.0706 30.2038C25.9522 30.5092 25.893 30.8655 25.893 31.2727ZM33.3824 34.1136C32.8899 34.1136 32.4579 33.9964 32.0862 33.7621C31.7169 33.5277 31.4281 33.1998 31.2197 32.7784C31.0138 32.357 30.9108 31.8646 30.9108 31.3011C30.9108 30.733 31.0138 30.237 31.2197 29.8132C31.4281 29.3894 31.7169 29.0604 32.0862 28.826C32.4579 28.5916 32.8899 28.4744 33.3824 28.4744C33.8748 28.4744 34.3057 28.5916 34.675 28.826C35.0467 29.0604 35.3355 29.3894 35.5415 29.8132C35.7498 30.237 35.854 30.733 35.854 31.3011C35.854 31.8646 35.7498 32.357 35.5415 32.7784C35.3355 33.1998 35.0467 33.5277 34.675 33.7621C34.3057 33.9964 33.8748 34.1136 33.3824 34.1136ZM33.3824 33.3608C33.7564 33.3608 34.0642 33.2649 34.3057 33.0732C34.5471 32.8814 34.7259 32.6293 34.8419 32.3168C34.9579 32.0043 35.0159 31.6657 35.0159 31.3011C35.0159 30.9366 34.9579 30.5968 34.8419 30.282C34.7259 29.9671 34.5471 29.7126 34.3057 29.5185C34.0642 29.3243 33.7564 29.2273 33.3824 29.2273C33.0083 29.2273 32.7006 29.3243 32.4591 29.5185C32.2176 29.7126 32.0389 29.9671 31.9229 30.282C31.8068 30.5968 31.7488 30.9366 31.7488 31.3011C31.7488 31.6657 31.8068 32.0043 31.9229 32.3168C32.0389 32.6293 32.2176 32.8814 32.4591 33.0732C32.7006 33.2649 33.0083 33.3608 33.3824 33.3608ZM38.7384 34.1278C38.3927 34.1278 38.079 34.0627 37.7973 33.9325C37.5156 33.8 37.2919 33.6094 37.1262 33.3608C36.9604 33.1098 36.8776 32.8068 36.8776 32.4517C36.8776 32.1392 36.9391 31.8859 37.0622 31.6918C37.1853 31.4953 37.3499 31.3414 37.5558 31.2301C37.7618 31.1188 37.9891 31.036 38.2377 30.9815C38.4886 30.9247 38.7407 30.8797 38.9941 30.8466C39.3255 30.804 39.5942 30.772 39.8002 30.7507C40.0085 30.727 40.16 30.688 40.2547 30.6335C40.3518 30.5791 40.4003 30.4844 40.4003 30.3494V30.321C40.4003 29.9706 40.3044 29.6984 40.1127 29.5043C39.9233 29.3101 39.6356 29.2131 39.2497 29.2131C38.8496 29.2131 38.536 29.3007 38.3087 29.4759C38.0814 29.651 37.9216 29.8381 37.8293 30.0369L37.0338 29.7528C37.1759 29.4214 37.3653 29.1634 37.602 28.9787C37.8411 28.7917 38.1015 28.6615 38.3833 28.5881C38.6673 28.5123 38.9467 28.4744 39.2213 28.4744C39.3965 28.4744 39.5977 28.4957 39.825 28.5384C40.0547 28.5786 40.276 28.6626 40.4891 28.7905C40.7045 28.9183 40.8833 29.1113 41.0253 29.3693C41.1673 29.6274 41.2384 29.973 41.2384 30.4062V34H40.4003V33.2614H40.3577C40.3009 33.3797 40.2062 33.5064 40.0736 33.6413C39.941 33.7763 39.7646 33.8911 39.5445 33.9858C39.3243 34.0805 39.0556 34.1278 38.7384 34.1278ZM38.8662 33.375C39.1977 33.375 39.477 33.3099 39.7043 33.1797C39.9339 33.0495 40.1067 32.8814 40.2227 32.6754C40.3411 32.4695 40.4003 32.2528 40.4003 32.0256V31.2585C40.3648 31.3011 40.2867 31.3402 40.1659 31.3757C40.0476 31.4089 39.9102 31.4384 39.754 31.4645C39.6001 31.4882 39.4498 31.5095 39.303 31.5284C39.1586 31.545 39.0414 31.5592 38.9514 31.571C38.7336 31.5994 38.53 31.6456 38.3406 31.7095C38.1536 31.7711 38.0021 31.8646 37.8861 31.9901C37.7725 32.1132 37.7156 32.2812 37.7156 32.4943C37.7156 32.7855 37.8234 33.0057 38.0388 33.1548C38.2566 33.3016 38.5324 33.375 38.8662 33.375ZM42.768 34V28.5455H43.5777V29.3693H43.6345C43.7339 29.0994 43.9139 28.8804 44.1743 28.7124C44.4347 28.5443 44.7282 28.4602 45.055 28.4602C45.1165 28.4602 45.1934 28.4614 45.2858 28.4638C45.3781 28.4661 45.4479 28.4697 45.4953 28.4744V29.3267C45.4669 29.3196 45.4018 29.3089 45.3 29.2947C45.2006 29.2782 45.0952 29.2699 44.9839 29.2699C44.7188 29.2699 44.482 29.3255 44.2737 29.4368C44.0677 29.5457 43.9044 29.6972 43.7836 29.8913C43.6653 30.0831 43.6061 30.3021 43.6061 30.5483V34H42.768ZM48.3824 34.1136C47.9278 34.1136 47.5265 33.9988 47.1785 33.7692C46.8305 33.5372 46.5583 33.2105 46.3618 32.7891C46.1653 32.3653 46.067 31.8646 46.067 31.2869C46.067 30.714 46.1653 30.2169 46.3618 29.7955C46.5583 29.3741 46.8317 29.0485 47.1821 28.8189C47.5325 28.5893 47.9373 28.4744 48.3966 28.4744C48.7517 28.4744 49.0322 28.5336 49.2382 28.652C49.4465 28.768 49.6051 28.9006 49.714 29.0497C49.8253 29.1965 49.9117 29.3172 49.9733 29.4119H50.0443V26.7273H50.8824V34H50.0727V33.1619H49.9733C49.9117 33.2614 49.8241 33.3868 49.7105 33.5384C49.5969 33.6875 49.4347 33.8213 49.224 33.9396C49.0133 34.0556 48.7327 34.1136 48.3824 34.1136ZM48.496 33.3608C48.8322 33.3608 49.1163 33.2732 49.3483 33.098C49.5803 32.9205 49.7567 32.6754 49.8774 32.3629C49.9981 32.0481 50.0585 31.6847 50.0585 31.2727C50.0585 30.8655 49.9993 30.5092 49.8809 30.2038C49.7626 29.8961 49.5874 29.657 49.3554 29.4865C49.1234 29.3137 48.8369 29.2273 48.496 29.2273C48.1409 29.2273 47.845 29.3184 47.6082 29.5007C47.3738 29.6806 47.1975 29.9257 47.0791 30.2358C46.9631 30.5436 46.9051 30.8892 46.9051 31.2727C46.9051 31.661 46.9643 32.0137 47.0827 32.331C47.2034 32.6458 47.3809 32.8968 47.6153 33.0838C47.8521 33.2685 48.1456 33.3608 48.496 33.3608Z" fill="black"/>
</svg>
