<svg width="41" height="48" viewBox="0 0 41 48" fill="none" xmlns="http://www.w3.org/2000/svg">
<path d="M36 3H5C2.23858 3 0 5.23858 0 8V40C0 42.7614 2.23858 45 5 45H36C38.7614 45 41 42.7614 41 40V8C41 5.23858 38.7614 3 36 3Z" fill="#550CF1"/>
<path d="M27 17.1818V22.8636H12.625V17.1818H27ZM15.4091 11.9545H23.25V31.983C23.25 32.286 23.3021 32.5417 23.4062 32.75C23.5104 32.9489 23.6714 33.1004 23.8892 33.2045C24.107 33.2992 24.3864 33.3466 24.7273 33.3466C24.964 33.3466 25.2386 33.3182 25.5511 33.2614C25.8731 33.2045 26.1098 33.1572 26.2614 33.1193L27.3977 38.6307C27.0473 38.7348 26.5455 38.8627 25.892 39.0142C25.2481 39.1657 24.4811 39.2652 23.5909 39.3125C21.7917 39.4072 20.2813 39.2225 19.0597 38.7585C17.8381 38.285 16.9195 37.5417 16.304 36.5284C15.6884 35.5152 15.3902 34.2462 15.4091 32.7216V11.9545Z" fill="white"/>
</svg>
